{
  "accessors": [
    {
      "bufferView": 2,
      "componentType": 5126,
      "count": 287,
      "max": [
        1.0,
        1.0,
        1.0
      ],
      "min": [
        -1.0,
        -1.0,
        -0.9999999403953552
      ],
      "type": "VEC3"
    },
    {
      "bufferView": 2,
      "byteOffset": 3444,
      "componentType": 5126,
      "count": 287,
      "max": [
        1.0,
        1.0,
        1.0
      ],
      "min": [
        -1.0,
        -1.0,
        -1.0
      ],
      "type": "VEC3"
    },
    {
      "bufferView": 1,
      "componentType": 5126,
      "count": 287,
      "max": [
        1.0,
        1.0
      ],
      "min": [
        0.0,
        0.0
      ],
      "type": "VEC2"
    },
    {
      "bufferView": 0,
      "componentType": 5125,
      "count": 1440,
      "type": "SCALAR"
    },
    {
      "bufferView": 2,
      "byteOffset": 6888,
      "componentType": 5126,
      "count": 3950,
      "max": [
        237.07456970214844,
        127.3663330078125,
        344.17156982421875
      ],
      "min": [
        -237.07456970214844,
        -127.3663330078125,
        -344.17156982421875
      ],
      "type": "VEC3"
    },
    {
      "bufferView": 2,
      "byteOffset": 54288,
      "componentType": 5126,
      "count": 3950,
      "max": [
        1.0,
        1.0,
        1.0
      ],
      "min": [
        -1.0,
        -1.0,
        -1.0
      ],
      "type": "VEC3"
    },
    {
      "bufferView": 1,
      "byteOffset": 2296,
      "componentType": 5126,
      "count": 3950,
      "max": [
        1.9968602657318115,
        0.9992949366569519
      ],
      "min": [
        0.0,
        0.0
      ],
      "type": "VEC2"
    },
    {
      "bufferView": 1,
      "byteOffset": 33896,
      "componentType": 5126,
      "count": 3950,
      "max": [
        1.0,
        1.0002752542495728
      ],
      "min": [
        0.0,
        0.0
      ],
      "type": "VEC2"
    },
    {
      "bufferView": 0,
      "byteOffset": 5760,
      "componentType": 5125,
      "count": 9552,
      "type": "SCALAR"
    },
    {
      "bufferView": 2,
      "byteOffset": 101688,
      "componentType": 5126,
      "count": 152,
      "max": [
        9.484050750732422,
        77.82781219482422,
        77.82770538330078
      ],
      "min": [
        -9.484050750732422,
        -77.82781219482422,
        -77.82770538330078
      ],
      "type": "VEC3"
    },
    {
      "bufferView": 2,
      "byteOffset": 103512,
      "componentType": 5126,
      "count": 152,
      "max": [
        0.9999991059303284,
        0.9995694756507874,
        0.959713339805603
      ],
      "min": [
        -0.9999991059303284,
        -0.9995694160461426,
        -0.9597132205963135
      ],
      "type": "VEC3"
    },
    {
      "bufferView": 1,
      "byteOffset": 65496,
      "componentType": 5126,
      "count": 152,
      "max": [
        1.738044261932373,
        0.9135587215423584
      ],
      "min": [
        0.800579309463501,
        0.616112470626831
      ],
      "type": "VEC2"
    },
    {
      "bufferView": 0,
      "byteOffset": 43968,
      "componentType": 5125,
      "count": 552,
      "type": "SCALAR"
    },
    {
      "bufferView": 2,
      "byteOffset": 105336,
      "componentType": 5126,
      "count": 152,
      "max": [
        11.172042846679688,
        79.2945556640625,
        79.29443359375
      ],
      "min": [
        -11.172042846679688,
        -79.2945556640625,
        -79.29443359375
      ],
      "type": "VEC3"
    },
    {
      "bufferView": 2,
      "byteOffset": 107160,
      "componentType": 5126,
      "count": 152,
      "max": [
        0.9999991059303284,
        0.9995694756507874,
        0.9597131609916687
      ],
      "min": [
        -0.9999991059303284,
        -0.9995693564414978,
        -0.9597135782241821
      ],
      "type": "VEC3"
    },
    {
      "bufferView": 1,
      "byteOffset": 66712,
      "componentType": 5126,
      "count": 152,
      "max": [
        1.738044261932373,
        0.9135587215423584
      ],
      "min": [
        0.800579309463501,
        0.616112470626831
      ],
      "type": "VEC2"
    },
    {
      "bufferView": 0,
      "byteOffset": 46176,
      "componentType": 5125,
      "count": 552,
      "type": "SCALAR"
    },
    {
      "bufferView": 2,
      "byteOffset": 108984,
      "componentType": 5126,
      "count": 152,
      "max": [
        9.484050750732422,
        77.82781219482422,
        77.82770538330078
      ],
      "min": [
        -9.484050750732422,
        -77.82781219482422,
        -77.82770538330078
      ],
      "type": "VEC3"
    },
    {
      "bufferView": 2,
      "byteOffset": 110808,
      "componentType": 5126,
      "count": 152,
      "max": [
        0.9999991059303284,
        0.9995694160461426,
        0.9597133994102478
      ],
      "min": [
        -0.9999991059303284,
        -0.9995693564414978,
        -0.9597134590148926
      ],
      "type": "VEC3"
    },
    {
      "bufferView": 1,
      "byteOffset": 67928,
      "componentType": 5126,
      "count": 152,
      "max": [
        1.833897352218628,
        0.9135587215423584
      ],
      "min": [
        0.52449631690979,
        0.616112470626831
      ],
      "type": "VEC2"
    },
    {
      "bufferView": 0,
      "byteOffset": 48384,
      "componentType": 5125,
      "count": 552,
      "type": "SCALAR"
    },
    {
      "bufferView": 2,
      "byteOffset": 112632,
      "componentType": 5126,
      "count": 152,
      "max": [
        11.172042846679688,
        79.2945556640625,
        79.29444122314453
      ],
      "min": [
        -11.172042846679688,
        -79.2945556640625,
        -79.29444122314453
      ],
      "type": "VEC3"
    },
    {
      "bufferView": 2,
      "byteOffset": 114456,
      "componentType": 5126,
      "count": 152,
      "max": [
        0.9999991059303284,
        0.9995694160461426,
        0.9597135782241821
      ],
      "min": [
        -0.9999991059303284,
        -0.9995694756507874,
        -0.9597131609916687
      ],
      "type": "VEC3"
    },
    {
      "bufferView": 1,
      "byteOffset": 69144,
      "componentType": 5126,
      "count": 152,
      "max": [
        1.833897352218628,
        0.9135587215423584
      ],
      "min": [
        0.52449631690979,
        0.616112470626831
      ],
      "type": "VEC2"
    },
    {
      "bufferView": 0,
      "byteOffset": 50592,
      "componentType": 5125,
      "count": 552,
      "type": "SCALAR"
    },
    {
      "bufferView": 2,
      "byteOffset": 116280,
      "componentType": 5126,
      "count": 4082,
      "max": [
        238.42877197265625,
        128.7586669921875,
        345.82879638671875
      ],
      "min": [
        -238.42877197265625,
        -128.7586669921875,
        -345.82879638671875
      ],
      "type": "VEC3"
    },
    {
      "bufferView": 2,
      "byteOffset": 165264,
      "componentType": 5126,
      "count": 4082,
      "max": [
        1.0,
        1.0,
        0.9999889731407166
      ],
      "min": [
        -1.0,
        -0.9999948143959045,
        -0.9999889731407166
      ],
      "type": "VEC3"
    },
    {
      "bufferView": 1,
      "byteOffset": 70360,
      "componentType": 5126,
      "count": 4082,
      "max": [
        1.9968602657318115,
        0.9992949366569519
      ],
      "min": [
        0.0,
        0.0
      ],
      "type": "VEC2"
    },
    {
      "bufferView": 1,
      "byteOffset": 103016,
      "componentType": 5126,
      "count": 4082,
      "max": [
        1.0,
        1.0002752542495728
      ],
      "min": [
        0.0,
        0.0
      ],
      "type": "VEC2"
    },
    {
      "bufferView": 0,
      "byteOffset": 52800,
      "componentType": 5125,
      "count": 9552,
      "type": "SCALAR"
    },
    {
      "bufferView": 3,
      "componentType": 5126,
      "count": 301,
      "max": [
        10.0
      ],
      "min": [
        0.0
      ],
      "type": "SCALAR"
    },
    {
      "bufferView": 5,
      "componentType": 5126,
      "count": 301,
      "max": [
        0.9997807145118713,
        0.0,
        0.0,
        1.0
      ],
      "min": [
        -0.8660253882408142,
        0.0,
        0.0,
        -0.5
      ],
      "type": "VEC4"
    },
    {
      "bufferView": 3,
      "byteOffset": 1204,
      "componentType": 5126,
      "count": 301,
      "max": [
        10.0
      ],
      "min": [
        0.0
      ],
      "type": "SCALAR"
    },
    {
      "bufferView": 5,
      "byteOffset": 4816,
      "componentType": 5126,
      "count": 301,
      "max": [
        0.9997807145118713,
        0.0,
        0.0,
        1.0
      ],
      "min": [
        -0.8660253882408142,
        0.0,
        0.0,
        -0.5
      ],
      "type": "VEC4"
    },
    {
      "bufferView": 3,
      "byteOffset": 2408,
      "componentType": 5126,
      "count": 301,
      "max": [
        10.0
      ],
      "min": [
        0.0
      ],
      "type": "SCALAR"
    },
    {
      "bufferView": 4,
      "componentType": 5126,
      "count": 301,
      "max": [
        22.061416625976563,
        194.201416015625,
        119.52854919433594
      ],
      "min": [
        22.061416625976563,
        194.201416015625,
        -120.47145080566406
      ],
      "type": "VEC3"
    },
    {
      "bufferView": 3,
      "byteOffset": 3612,
      "componentType": 5126,
      "count": 301,
      "max": [
        10.0
      ],
      "min": [
        0.0
      ],
      "type": "SCALAR"
    },
    {
      "bufferView": 5,
      "byteOffset": 9632,
      "componentType": 5126,
      "count": 301,
      "max": [
        0.026176948100328445,
        0.0,
        0.0,
        1.0
      ],
      "min": [
        -0.026176948100328445,
        0.0,
        0.0,
        0.9996573328971863
      ],
      "type": "VEC4"
    }
  ],
  "animations": [
    {
      "channels": [
        {
          "sampler": 0,
          "target": {
            "node": 8,
            "path": "rotation"
          }
        },
        {
          "sampler": 1,
          "target": {
            "node": 12,
            "path": "rotation"
          }
        },
        {
          "sampler": 2,
          "target": {
            "node": 6,
            "path": "translation"
          }
        },
        {
          "sampler": 3,
          "target": {
            "node": 6,
            "path": "rotation"
          }
        }
      ],
      "name": "Take 001",
      "samplers": [
        {
          "input": 30,
          "interpolation": "LINEAR",
          "output": 31
        },
        {
          "input": 32,
          "interpolation": "LINEAR",
          "output": 33
        },
        {
          "input": 34,
          "interpolation": "LINEAR",
          "output": 35
        },
        {
          "input": 36,
          "interpolation": "LINEAR",
          "output": 37
        }
      ]
    }
  ],
  "asset": {
    "extras": {
      "author": "BenVanhaelst (https://sketchfab.com/BenVanhaelst)",
      "license": "CC-BY-4.0 (http://creativecommons.org/licenses/by/4.0/)",
      "source": "https://sketchfab.com/3d-models/flying-circus-felixtowe-f2a-51de3c3c88224b50ac49996e6c328ed1",
      "title": "Flying Circus - Felixtowe F2A"
    },
    "generator": "Sketchfab-12.65.0",
    "version": "2.0"
  },
  "bufferViews": [
    {
      "buffer": 0,
      "byteLength": 91008,
      "name": "floatBufferViews",
      "target": 34963
    },
    {
      "buffer": 0,
      "byteLength": 135672,
      "byteOffset": 91008,
      "byteStride": 8,
      "name": "floatBufferViews",
      "target": 34962
    },
    {
      "buffer": 0,
      "byteLength": 214248,
      "byteOffset": 226680,
      "byteStride": 12,
      "name": "floatBufferViews",
      "target": 34962
    },
    {
      "buffer": 0,
      "byteLength": 4816,
      "byteOffset": 440928,
      "name": "floatBufferViews"
    },
    {
      "buffer": 0,
      "byteLength": 3612,
      "byteOffset": 445744,
      "byteStride": 12,
      "name": "floatBufferViews"
    },
    {
      "buffer": 0,
      "byteLength": 14448,
      "byteOffset": 449356,
      "byteStride": 16,
      "name": "floatBufferViews"
    }
  ],
  "buffers": [
    {
      "byteLength": 463804,
      "uri": "scene.bin"
    }
  ],
  "images": [
    {
      "uri": "textures/aiStandardSurface3_baseColor.png"
    },
    {
      "uri": "textures/PlaneTexture_baseColor.jpeg"
    }
  ],
  "materials": [
    {
      "alphaMode": "BLEND",
      "name": "aiStandardSurface3",
      "pbrMetallicRoughness": {
        "baseColorFactor": [
          0.6340480577,
          0.6340480577,
          0.6340480577,
          0.6279678845
        ],
        "baseColorTexture": {
          "index": 0
        },
        "metallicFactor": 0.0,
        "roughnessFactor": 0.5063644213
      }
    },
    {
      "doubleSided": true,
      "name": "PlaneTexture",
      "pbrMetallicRoughness": {
        "baseColorTexture": {
          "index": 1
        },
        "metallicFactor": 0.0,
        "roughnessFactor": 0.6
      }
    },
    {
      "name": "lambert2",
      "pbrMetallicRoughness": {
        "baseColorFactor": [
          0.0,
          0.0,
          0.0,
          1.0
        ],
        "metallicFactor": 0.0,
        "roughnessFactor": 0.0
      }
    }
  ],
  "meshes": [
    {
      "name": "pSphere1_aiStandardSurface3_0",
      "primitives": [
        {
          "attributes": {
            "NORMAL": 1,
            "POSITION": 0,
            "TEXCOORD_0": 2
          },
          "indices": 3,
          "material": 0,
          "mode": 4
        }
      ]
    },
    {
      "name": "Plane_PlaneTexture_0",
      "primitives": [
        {
          "attributes": {
            "NORMAL": 5,
            "POSITION": 4,
            "TEXCOORD_0": 6,
            "TEXCOORD_1": 7
          },
          "indices": 8,
          "material": 1,
          "mode": 4
        }
      ]
    },
    {
      "name": "rotor_left_PlaneTexture_0",
      "primitives": [
        {
          "attributes": {
            "NORMAL": 10,
            "POSITION": 9,
            "TEXCOORD_0": 11
          },
          "indices": 12,
          "material": 1,
          "mode": 4
        }
      ]
    },
    {
      "name": "Black_rotor_left_lambert2_0",
      "primitives": [
        {
          "attributes": {
            "NORMAL": 14,
            "POSITION": 13,
            "TEXCOORD_0": 15
          },
          "indices": 16,
          "material": 2,
          "mode": 4
        }
      ]
    },
    {
      "name": "rotor_right_PlaneTexture_0",
      "primitives": [
        {
          "attributes": {
            "NORMAL": 18,
            "POSITION": 17,
            "TEXCOORD_0": 19
          },
          "indices": 20,
          "material": 1,
          "mode": 4
        }
      ]
    },
    {
      "name": "Black_rotor_right_lambert2_0",
      "primitives": [
        {
          "attributes": {
            "NORMAL": 22,
            "POSITION": 21,
            "TEXCOORD_0": 23
          },
          "indices": 24,
          "material": 2,
          "mode": 4
        }
      ]
    },
    {
      "name": "Black_plane_main_lambert2_0",
      "primitives": [
        {
          "attributes": {
            "NORMAL": 26,
            "POSITION": 25,
            "TEXCOORD_0": 27,
            "TEXCOORD_1": 28
          },
          "indices": 29,
          "material": 2,
          "mode": 4
        }
      ]
    }
  ],
  "nodes": [
    {
      "children": [
        1
      ],
      "matrix": [
        1.0,
        0.0,
        0.0,
        0.0,
        0.0,
        2.220446049250313e-16,
        -1.0,
        0.0,
        0.0,
        1.0,
        2.220446049250313e-16,
        0.0,
        0.0,
        0.0,
        0.0,
        1.0
      ],
      "name": "Sketchfab_model"
    },
    {
      "children": [
        2
      ],
      "matrix": [
        1.0,
        0.0,
        0.0,
        0.0,
        0.0,
        0.0,
        1.0,
        0.0,
        0.0,
        -1.0,
        0.0,
        0.0,
        0.0,
        0.0,
        0.0,
        1.0
      ],
      "name": "77e5d4c1871b4848ae8e3aaba372e931.fbx"
    },
    {
      "children": [
        3
      ],
      "name": "Object_2"
    },
    {
      "children": [
        4,
        6
      ],
      "name": "RootNode"
    },
    {
      "children": [
        5
      ],
      "name": "pSphere1",
      "scale": [
        2376.55126953125,
        2376.55126953125,
        2376.55126953125
      ],
      "translation": [
        0.0,
        60.748043060302734,
        0.0
      ]
    },
    {
      "mesh": 0,
      "name": "pSphere1_aiStandardSurface3_0"
    },
    {
      "children": [
        7,
        8,
        12,
        16
      ],
      "name": "Plane",
      "rotation": [
        -0.0088080745190382,
        -0.0,
        0.0,
        0.9999611973762512
      ],
      "translation": [
        22.061416625976563,
        194.201416015625,
        39.90230941772461
      ]
    },
    {
      "mesh": 1,
      "name": "Plane_PlaneTexture_0"
    },
    {
      "children": [
        9,
        10
      ],
      "name": "rotor_left",
      "rotation": [
        -0.7705132365226746,
        0.0,
        0.0,
        0.6374239921569824
      ],
      "translation": [
        -101.90357971191406,
        31.81473159790039,
        -138.81289672851563
      ]
    },
    {
      "mesh": 2,
      "name": "rotor_left_PlaneTexture_0"
    },
    {
      "children": [
        11
      ],
      "name": "Black_rotor_left",
      "translation": [
        3.814697265625e-06,
        -7.62939453125e-06,
        -8.0108642578125e-05
      ]
    },
    {
      "mesh": 3,
      "name": "Black_rotor_left_lambert2_0"
    },
    {
      "children": [
        13,
        14
      ],
      "name": "rotor_right",
      "rotation": [
        -0.7705132365226746,
        0.0,
        0.0,
        0.6374239921569824
      ],
      "translation": [
        -101.90357971191406,
        31.81473159790039,
        139.7558135986328
      ]
    },
    {
      "mesh": 4,
      "name": "rotor_right_PlaneTexture_0"
    },
    {
      "children": [
        15
      ],
      "name": "Black_rotor_right",
      "translation": [
        3.814697265625e-06,
        -7.62939453125e-06,
        8.96453857421875e-05
      ]
    },
    {
      "mesh": 5,
      "name": "Black_rotor_right_lambert2_0"
    },
    {
      "children": [
        17
      ],
      "name": "Black_plane_main",
      "translation": [
        0.33045196533203125,
        -0.3065528869628906,
        -0.00042724609375
      ]
    },
    {
      "mesh": 6,
      "name": "Black_plane_main_lambert2_0"
    }
  ],
  "samplers": [
    {
      "magFilter": 9729,
      "minFilter": 9987,
      "wrapS": 10497,
      "wrapT": 10497
    }
  ],
  "scene": 0,
  "scenes": [
    {
      "name": "Sketchfab_Scene",
      "nodes": [
        0
      ]
    }
  ],
  "textures": [
    {
      "sampler": 0,
      "source": 0
    },
    {
      "sampler": 0,
      "source": 1
    }
  ]
}
