{
  "accessors": [
    {
      "bufferView": 2,
      "componentType": 5126,
      "count": 4051,
      "max": [
        11.370800971984863,
        39.963985443115234,
        11.371804237365723
      ],
      "min": [
        -11.371649742126465,
        13.57022762298584,
        -11.370590209960938
      ],
      "type": "VEC3"
    },
    {
      "bufferView": 2,
      "byteOffset": 48612,
      "componentType": 5126,
      "count": 4051,
      "max": [
        0.9997637867927551,
        1.0,
        0.9997438192367554
      ],
      "min": [
        -0.9997470378875732,
        -0.9995838403701782,
        -0.9997677206993103
      ],
      "type": "VEC3"
    },
    {
      "bufferView": 1,
      "componentType": 5126,
      "count": 4051,
      "max": [
        0.9620031118392944,
        0.9970322251319885
      ],
      "min": [
        0.010854389518499374,
        0.019611263647675514
      ],
      "type": "VEC2"
    },
    {
      "bufferView": 0,
      "componentType": 5125,
      "count": 23040,
      "type": "SCALAR"
    },
    {
      "bufferView": 2,
      "byteOffset": 97224,
      "componentType": 5126,
      "count": 287,
      "max": [
        4.15185022354126,
        6.584835052490234,
        4.151850700378418
      ],
      "min": [
        -4.15185022354126,
        -2.9802322387695313e-08,
        -4.151850700378418
      ],
      "type": "VEC3"
    },
    {
      "bufferView": 2,
      "byteOffset": 100668,
      "componentType": 5126,
      "count": 287,
      "max": [
        0.9996699094772339,
        0.9999993443489075,
        0.9996699690818787
      ],
      "min": [
        -0.9996699094772339,
        -1.0,
        -0.9996699690818787
      ],
      "type": "VEC3"
    },
    {
      "bufferView": 1,
      "byteOffset": 32408,
      "componentType": 5126,
      "count": 287,
      "max": [
        0.9767866134643555,
        0.990915834903717
      ],
      "min": [
        0.3820171058177948,
        0.010104374028742313
      ],
      "type": "VEC2"
    },
    {
      "bufferView": 0,
      "byteOffset": 92160,
      "componentType": 5125,
      "count": 1092,
      "type": "SCALAR"
    },
    {
      "bufferView": 2,
      "byteOffset": 104112,
      "componentType": 5126,
      "count": 81,
      "max": [
        -2.1665656566619873,
        14.02363395690918,
        -2.2744412422180176
      ],
      "min": [
        -3.61118483543396,
        6.270445823669434,
        -3.439279317855835
      ],
      "type": "VEC3"
    },
    {
      "bufferView": 2,
      "byteOffset": 105084,
      "componentType": 5126,
      "count": 81,
      "max": [
        0.9867640733718872,
        0.2029171884059906,
        0.9918438792228699
      ],
      "min": [
        -0.9867640733718872,
        -0.20291808247566223,
        -0.9918438196182251
      ],
      "type": "VEC3"
    },
    {
      "bufferView": 1,
      "byteOffset": 34704,
      "componentType": 5126,
      "count": 81,
      "max": [
        0.03188096731901169,
        0.6808139085769653
      ],
      "min": [
        0.01803262159228325,
        0.46976903080940247
      ],
      "type": "VEC2"
    },
    {
      "bufferView": 0,
      "byteOffset": 96528,
      "componentType": 5125,
      "count": 384,
      "type": "SCALAR"
    },
    {
      "bufferView": 2,
      "byteOffset": 106056,
      "componentType": 5126,
      "count": 81,
      "max": [
        3.611184597015381,
        14.02363395690918,
        -2.2744412422180176
      ],
      "min": [
        2.166565418243408,
        6.270445823669434,
        -3.439279317855835
      ],
      "type": "VEC3"
    },
    {
      "bufferView": 2,
      "byteOffset": 107028,
      "componentType": 5126,
      "count": 81,
      "max": [
        0.9867640733718872,
        0.20291747152805328,
        0.9918438196182251
      ],
      "min": [
        -0.9867640733718872,
        -0.20291772484779358,
        -0.9918438196182251
      ],
      "type": "VEC3"
    },
    {
      "bufferView": 1,
      "byteOffset": 35352,
      "componentType": 5126,
      "count": 81,
      "max": [
        0.10320429503917694,
        0.6819598078727722
      ],
      "min": [
        0.08844977617263794,
        0.4709474444389343
      ],
      "type": "VEC2"
    },
    {
      "bufferView": 0,
      "byteOffset": 98064,
      "componentType": 5125,
      "count": 384,
      "type": "SCALAR"
    },
    {
      "bufferView": 2,
      "byteOffset": 108000,
      "componentType": 5126,
      "count": 81,
      "max": [
        -2.1665656566619873,
        14.02363395690918,
        3.439279079437256
      ],
      "min": [
        -3.61118483543396,
        6.270445823669434,
        2.2744412422180176
      ],
      "type": "VEC3"
    },
    {
      "bufferView": 2,
      "byteOffset": 108972,
      "componentType": 5126,
      "count": 81,
      "max": [
        0.9867640137672424,
        0.20291677117347717,
        0.9918438196182251
      ],
      "min": [
        -0.9867640733718872,
        -0.20291778445243835,
        -0.9918438792228699
      ],
      "type": "VEC3"
    },
    {
      "bufferView": 1,
      "byteOffset": 36000,
      "componentType": 5126,
      "count": 81,
      "max": [
        0.07753799855709076,
        0.6816185116767883
      ],
      "min": [
        0.06278347969055176,
        0.47060611844062805
      ],
      "type": "VEC2"
    },
    {
      "bufferView": 0,
      "byteOffset": 99600,
      "componentType": 5125,
      "count": 384,
      "type": "SCALAR"
    },
    {
      "bufferView": 2,
      "byteOffset": 109944,
      "componentType": 5126,
      "count": 81,
      "max": [
        3.611184597015381,
        14.02363395690918,
        3.439279079437256
      ],
      "min": [
        2.166565418243408,
        6.270445823669434,
        2.2744412422180176
      ],
      "type": "VEC3"
    },
    {
      "bufferView": 2,
      "byteOffset": 110916,
      "componentType": 5126,
      "count": 81,
      "max": [
        0.9867641925811768,
        0.20291656255722046,
        0.9918438196182251
      ],
      "min": [
        -0.9867640733718872,
        -0.20291811227798462,
        -0.9918438792228699
      ],
      "type": "VEC3"
    },
    {
      "bufferView": 1,
      "byteOffset": 36648,
      "componentType": 5126,
      "count": 81,
      "max": [
        0.05397285893559456,
        0.6811370253562927
      ],
      "min": [
        0.04012451693415642,
        0.4700925052165985
      ],
      "type": "VEC2"
    },
    {
      "bufferView": 0,
      "byteOffset": 101136,
      "componentType": 5125,
      "count": 384,
      "type": "SCALAR"
    },
    {
      "bufferView": 3,
      "componentType": 5126,
      "count": 244,
      "max": [
        7.875
      ],
      "min": [
        0.0416666679084301
      ],
      "type": "SCALAR"
    },
    {
      "bufferView": 4,
      "componentType": 5126,
      "count": 244,
      "max": [
        1.3877787807814457e-17,
        0.0,
        6.968009724772628e-09
      ],
      "min": [
        -1.3877787807814457e-17,
        -0.6786479949951172,
        0.0
      ],
      "type": "VEC3"
    },
    {
      "bufferView": 3,
      "byteOffset": 976,
      "componentType": 5126,
      "count": 244,
      "max": [
        7.875
      ],
      "min": [
        0.0416666679084301
      ],
      "type": "SCALAR"
    },
    {
      "bufferView": 4,
      "byteOffset": 2928,
      "componentType": 5126,
      "count": 244,
      "max": [
        1.0872141122817993,
        1.0499999523162842,
        1.0872141122817993
      ],
      "min": [
        1.0,
        1.0,
        1.0
      ],
      "type": "VEC3"
    },
    {
      "bufferView": 3,
      "byteOffset": 1952,
      "componentType": 5126,
      "count": 244,
      "max": [
        7.875
      ],
      "min": [
        0.0416666679084301
      ],
      "type": "SCALAR"
    },
    {
      "bufferView": 5,
      "componentType": 5126,
      "count": 244,
      "max": [
        3.461927673390354e-18,
        1.3189109231352754e-19,
        6.638598803819346e-18,
        1.0
      ],
      "min": [
        -5.084211454727062e-18,
        -1.8589730091680844e-19,
        -6.66845340648761e-18,
        1.0
      ],
      "type": "VEC4"
    },
    {
      "bufferView": 3,
      "byteOffset": 2928,
      "componentType": 5126,
      "count": 239,
      "max": [
        7.875
      ],
      "min": [
        0.0416666679084301
      ],
      "type": "SCALAR"
    },
    {
      "bufferView": 4,
      "byteOffset": 5856,
      "componentType": 5126,
      "count": 239,
      "max": [
        0.0,
        2.0,
        0.0
      ],
      "min": [
        0.0,
        -2.0,
        0.0
      ],
      "type": "VEC3"
    },
    {
      "bufferView": 3,
      "byteOffset": 3884,
      "componentType": 5126,
      "count": 239,
      "max": [
        7.875
      ],
      "min": [
        0.0416666679084301
      ],
      "type": "SCALAR"
    },
    {
      "bufferView": 5,
      "byteOffset": 3904,
      "componentType": 5126,
      "count": 239,
      "max": [
        0.013087602332234383,
        0.00022844494378659874,
        0.017450911924242973,
        1.0
      ],
      "min": [
        -0.01308959536254406,
        -0.00022844494378659874,
        -0.017450911924242973,
        0.9997620582580566
      ],
      "type": "VEC4"
    }
  ],
  "animations": [
    {
      "channels": [
        {
          "sampler": 0,
          "target": {
            "node": 5,
            "path": "translation"
          }
        },
        {
          "sampler": 1,
          "target": {
            "node": 5,
            "path": "scale"
          }
        },
        {
          "sampler": 2,
          "target": {
            "node": 5,
            "path": "rotation"
          }
        },
        {
          "sampler": 3,
          "target": {
            "node": 4,
            "path": "translation"
          }
        },
        {
          "sampler": 4,
          "target": {
            "node": 4,
            "path": "rotation"
          }
        }
      ],
      "name": "Take 001",
      "samplers": [
        {
          "input": 24,
          "interpolation": "LINEAR",
          "output": 25
        },
        {
          "input": 26,
          "interpolation": "LINEAR",
          "output": 27
        },
        {
          "input": 28,
          "interpolation": "LINEAR",
          "output": 29
        },
        {
          "input": 30,
          "interpolation": "LINEAR",
          "output": 31
        },
        {
          "input": 32,
          "interpolation": "LINEAR",
          "output": 33
        }
      ]
    }
  ],
  "asset": {
    "extras": {
      "author": "carlin.chu (https://sketchfab.com/carlin.chu)",
      "license": "CC-BY-4.0 (http://creativecommons.org/licenses/by/4.0/)",
      "source": "https://sketchfab.com/3d-models/hot-air-balloon-9fef383df15c40659a89ba1036a9b9e4",
      "title": "Hot air balloon"
    },
    "generator": "Sketchfab-15.59.0",
    "version": "2.0"
  },
  "bufferViews": [
    {
      "buffer": 0,
      "byteLength": 102672,
      "name": "floatBufferViews",
      "target": 34963
    },
    {
      "buffer": 0,
      "byteLength": 37296,
      "byteOffset": 102672,
      "byteStride": 8,
      "name": "floatBufferViews",
      "target": 34962
    },
    {
      "buffer": 0,
      "byteLength": 111888,
      "byteOffset": 139968,
      "byteStride": 12,
      "name": "floatBufferViews",
      "target": 34962
    },
    {
      "buffer": 0,
      "byteLength": 4840,
      "byteOffset": 251856,
      "name": "floatBufferViews"
    },
    {
      "buffer": 0,
      "byteLength": 8724,
      "byteOffset": 256696,
      "byteStride": 12,
      "name": "floatBufferViews"
    },
    {
      "buffer": 0,
      "byteLength": 7728,
      "byteOffset": 265420,
      "byteStride": 16,
      "name": "floatBufferViews"
    }
  ],
  "buffers": [
    {
      "byteLength": 273148,
      "uri": "scene.bin"
    }
  ],
  "extensionsUsed": [
    "KHR_materials_unlit"
  ],
  "images": [
    {
      "uri": "textures/balloon_baseColor.png"
    }
  ],
  "materials": [
    {
      "doubleSided": true,
      "extensions": {
        "KHR_materials_unlit": {}
      },
      "name": "balloon",
      "pbrMetallicRoughness": {
        "baseColorTexture": {
          "index": 0
        },
        "metallicFactor": 0.0
      }
    }
  ],
  "meshes": [
    {
      "name": "pCube1_balloon_0",
      "primitives": [
        {
          "attributes": {
            "NORMAL": 1,
            "POSITION": 0,
            "TEXCOORD_0": 2
          },
          "indices": 3,
          "material": 0,
          "mode": 4
        }
      ]
    },
    {
      "name": "pCube2_balloon_0",
      "primitives": [
        {
          "attributes": {
            "NORMAL": 5,
            "POSITION": 4,
            "TEXCOORD_0": 6
          },
          "indices": 7,
          "material": 0,
          "mode": 4
        }
      ]
    },
    {
      "name": "pCylinder1_balloon_0",
      "primitives": [
        {
          "attributes": {
            "NORMAL": 9,
            "POSITION": 8,
            "TEXCOORD_0": 10
          },
          "indices": 11,
          "material": 0,
          "mode": 4
        }
      ]
    },
    {
      "name": "pCylinder2_balloon_0",
      "primitives": [
        {
          "attributes": {
            "NORMAL": 13,
            "POSITION": 12,
            "TEXCOORD_0": 14
          },
          "indices": 15,
          "material": 0,
          "mode": 4
        }
      ]
    },
    {
      "name": "pCylinder3_balloon_0",
      "primitives": [
        {
          "attributes": {
            "NORMAL": 17,
            "POSITION": 16,
            "TEXCOORD_0": 18
          },
          "indices": 19,
          "material": 0,
          "mode": 4
        }
      ]
    },
    {
      "name": "pCylinder4_balloon_0",
      "primitives": [
        {
          "attributes": {
            "NORMAL": 21,
            "POSITION": 20,
            "TEXCOORD_0": 22
          },
          "indices": 23,
          "material": 0,
          "mode": 4
        }
      ]
    }
  ],
  "nodes": [
    {
      "children": [
        1
      ],
      "matrix": [
        1.0,
        0.0,
        0.0,
        0.0,
        0.0,
        2.220446049250313e-16,
        -1.0,
        0.0,
        0.0,
        1.0,
        2.220446049250313e-16,
        0.0,
        0.0,
        0.0,
        0.0,
        1.0
      ],
      "name": "Sketchfab_model"
    },
    {
      "children": [
        2
      ],
      "matrix": [
        0.009999999776482582,
        0.0,
        0.0,
        0.0,
        0.0,
        0.0,
        0.009999999776482582,
        0.0,
        0.0,
        -0.009999999776482582,
        0.0,
        0.0,
        0.0,
        0.0,
        0.0,
        1.0
      ],
      "name": "564d5998c2ae4a5f85a602f77fb33fc1.fbx"
    },
    {
      "children": [
        3
      ],
      "name": "Object_2"
    },
    {
      "children": [
        4
      ],
      "name": "RootNode"
    },
    {
      "children": [
        5,
        7,
        9,
        11,
        13,
        15
      ],
      "name": "hot_air_balloon"
    },
    {
      "children": [
        6
      ],
      "name": "pCube1",
      "scale": [
        1.0000576972961426,
        1.0001434087753296,
        1.0000576972961426
      ],
      "translation": [
        0.0,
        -0.0019468050450086594,
        4.610387158848761e-12
      ]
    },
    {
      "mesh": 0,
      "name": "pCube1_balloon_0"
    },
    {
      "children": [
        8
      ],
      "name": "pCube2"
    },
    {
      "mesh": 1,
      "name": "pCube2_balloon_0"
    },
    {
      "children": [
        10
      ],
      "name": "pCylinder1"
    },
    {
      "mesh": 2,
      "name": "pCylinder1_balloon_0"
    },
    {
      "children": [
        12
      ],
      "name": "pCylinder2"
    },
    {
      "mesh": 3,
      "name": "pCylinder2_balloon_0"
    },
    {
      "children": [
        14
      ],
      "name": "pCylinder3"
    },
    {
      "mesh": 4,
      "name": "pCylinder3_balloon_0"
    },
    {
      "children": [
        16
      ],
      "name": "pCylinder4"
    },
    {
      "mesh": 5,
      "name": "pCylinder4_balloon_0"
    }
  ],
  "samplers": [
    {
      "magFilter": 9729,
      "minFilter": 9987,
      "wrapS": 10497,
      "wrapT": 10497
    }
  ],
  "scene": 0,
  "scenes": [
    {
      "name": "Sketchfab_Scene",
      "nodes": [
        0
      ]
    }
  ],
  "textures": [
    {
      "sampler": 0,
      "source": 0
    }
  ]
}
